#!OML:ASF H:\Terrain\Patient Classification 1\Walking\liu\liu.ASF
:FULLY-SPECIFIED
:DEGREES
321
root 9.47243 16.8922 18.503 5.92104 -3.99708 -1.91769
lowerback -5.28264 2.1943 -0.107164
upperback -0.103869 2.86443 2.32661
thorax 2.72801 1.41269 2.67142
lowerneck -20.2652 -4.97474 -13.2393
upperneck 22.7455 -6.09671 12.51
head 11.5987 -2.39806 5.9344
rclavicle -1.87852e-014 -3.06128e-014
rhumerus -23.1547 20.305 -85.9142
rradius 42.9227
rwrist -20.9694
rhand -34.4592 -23.1912
rfingers 7.12502
rthumb -7.62279 -53.0339
lclavicle -1.87852e-014 -3.06128e-014
lhumerus -51.8311 19.4645 64.9447
lradius 9.81956
lwrist -37.0708
lhand -6.85536 -25.749
lfingers 7.12502
lthumb 19.0099 3.34198
rfemur 8.2036 -2.86453 21.0079
rtibia 36.34
rfoot 12.0357 4.83377
rtoes -17.0844
lfemur -36.6213 4.95563 -22.0988
ltibia 34.492
lfoot -3.4373 1.54871
ltoes 1.36018
322
root 9.5054 16.9324 18.6811 5.89873 -4.30668 -0.799926
lowerback -5.02266 2.17258 -1.04383
upperback -0.391048 2.90542 1.97836
thorax 2.25601 1.43184 2.8186
lowerneck -19.9193 -4.78511 -13.2519
upperneck 22.9419 -5.86088 12.4326
head 11.5647 -2.31375 5.95384
rclavicle 5.41688e-015 1.19271e-015
rhumerus -23.9273 19.6984 -86.2959
rradius 41.988
rwrist -20.4152
rhand -33.4494 -23.6062
rfingers 7.12502
rthumb -6.64807 -53.4818
lclavicle 5.41688e-015 1.19271e-015
lhumerus -51.9322 19.8343 64.4503
lradius 10.1196
lwrist -37.1722
lhand -6.9232 -26.2617
lfingers 7.12502
lthumb 18.9447 2.83571
rfemur 5.96683 -3.37901 19.4443
rtibia 40.3944
rfoot 13.7027 3.35361
rtoes -17.0697
lfemur -35.5362 4.78051 -23.394
ltibia 33.8605
lfoot -3.72514 1.76612
ltoes 1.70422
323
root 9.53199 16.9642 18.8661 5.73753 -4.53293 0.261302
lowerback -5.09941 2.09466 -1.94396
upperback -0.360603 2.86151 1.63675
thorax 2.30618 1.40148 2.97251
lowerneck -19.694 -4.60201 -13.0385
upperneck 22.9185 -5.65193 12.2775
head 11.4655 -2.22512 5.88812
rclavicle 3.18055e-015 4.77083e-015
rhumerus -24.2132 19.4204 -86.6957
rradius 40.9829
rwrist -20.3191
rhand -33.2855 -25.0879
rfingers 7.12502
rthumb -6.48983 -54.9685
lclavicle 3.18055e-015 4.77083e-015
lhumerus -51.0005 18.8944 66.0693
lradius 10.5225
lwrist -34.4603
lhand -6.78679 -26.1819
lfingers 7.12502
lthumb 19.0759 2.90258
rfemur 4.1781 -3.44829 18.0761
rtibia 44.2526
rfoot 14.3483 2.55124
rtoes -16.7812
lfemur -34.2863 4.77397 -24.6666
ltibia 33.1774
lfoot -3.98879 1.74861
ltoes 1.02782
324
root 9.55479 16.9694 19.0547 5.56448 -4.7544 1.18341
lowerback -5.21256 2.0089 -2.74551
upperback -0.311136 2.80391 1.32228
thorax 2.40173 1.36341 3.10035
lowerneck -19.5093 -4.48083 -12.8311
upperneck 22.726 -5.52297 12.1688
head 11.3262 -2.16543 5.82092
rclavicle 4.33102e-014 5.1684e-015
rhumerus -24.6454 19.0054 -87.1782
rradius 40.1116
rwrist -20.3004
rhand -33.4058 -25.3523
rfingers 7.12502
rthumb -6.60597 -55.2293
lclavicle 4.33102e-014 5.1684e-015
lhumerus -49.9493 17.4983 68.073
lradius 11.1427
lwrist -30.944
lhand -6.78613 -26.1213
lfingers 7.12502
lthumb 19.0765 2.96315
rfemur 2.78928 -3.43983 16.7758
rtibia 47.8966
rfoot 14.0241 2.23448
rtoes -15.9579
lfemur -33.1148 4.79473 -25.7861
ltibia 32.6438
lfoot -4.47022 1.80203
ltoes 0.0264037
325
root 9.5687 17.0078 19.2397 5.55467 -5.05392 1.74352
lowerback -5.14262 1.96121 -3.29289
upperback -0.482415 2.77391 1.11062
thorax 2.17273 1.35098 3.17911
lowerneck -19.277 -4.34588 -12.7075
upperneck 22.6955 -5.40013 12.1818
head 11.2466 -2.10413 5.82204
rclavicle -2.26863e-014 1.31198e-014
rhumerus -25.4372 18.4683 -87.7127
rradius 39.3352
rwrist -20.0998
rhand -33.6227 -26.0263
rfingers 7.12502
rthumb -6.81538 -55.8966
lclavicle -2.26863e-014 1.31198e-014
lhumerus -49.1136 15.5638 70.3389
lradius 11.8511
lwrist -27.5666
lhand -7.37365 -26.0784
lfingers 7.12502
lthumb 18.5114 3.06081
rfemur 0.700031 -3.7893 16.0674
rtibia 51.2906
rfoot 14.0755 1.36067
rtoes -20.7241
lfemur -32.0933 4.85992 -26.4325
ltibia 32.1767
lfoot -5.12088 1.96389
ltoes -0.075902
326
root 9.58408 17.037 19.4056 5.4943 -5.18065 2.12025
lowerback -4.89002 1.91778 -3.62036
upperback -0.542161 2.72733 1.00786
thorax 1.96319 1.33091 3.24138
lowerneck -19.4167 -4.31994 -12.8208
upperneck 22.8565 -5.35068 12.2816
head 11.3333 -2.07709 5.89663
rclavicle 1.39149e-014 -3.18055e-015
rhumerus -25.8757 18.0239 -87.9221
rradius 38.509
rwrist -19.9939
rhand -34.1816 -27.1978
rfingers 7.12502
rthumb -7.35484 -57.05
lclavicle 1.39149e-014 -3.18055e-015
lhumerus -48.1176 14.0674 72.3979
lradius 12.3119
lwrist -25.2747
lhand -8.55472 -26.2274
lfingers 7.12502
lthumb 17.375 3.01597
rfemur -1.25537 -4.03904 15.835
rtibia 54.4655
rfoot 13.7574 -0.877366
rtoes -24.8069
lfemur -31.143 4.96509 -26.8969
ltibia 31.7651
lfoot -5.61676 1.93102
ltoes -0.39614
327
root 9.60574 17.0641 19.5758 5.32441 -5.19298 2.44538
lowerback -4.84838 1.84919 -3.84137
upperback -0.252428 2.65082 0.99552
thorax 2.23569 1.27983 3.35411
lowerneck -20.0893 -4.38258 -12.9636
upperneck 22.8964 -5.27425 12.1472
head 11.4694 -2.05179 5.88571
rclavicle -2.7805e-014 -3.97569e-016
rhumerus -25.6138 17.659 -87.7367
rradius 37.647
rwrist -19.848
rhand -33.45 -26.9966
rfingers 7.12502
rthumb -6.64868 -56.8723
lclavicle -2.7805e-014 -3.97569e-016
lhumerus -46.6251 12.9147 74.4677
lradius 12.7276
lwrist -23.1693
lhand -9.59979 -26.427
lfingers 7.12502
lthumb 16.369 2.90229
rfemur -2.73458 -4.03026 15.5416
rtibia 57.4299
rfoot 12.1718 -3.79748
rtoes -22.3384
lfemur -30.011 5.0603 -27.3418
ltibia 31.2967
lfoot -6.12526 1.85224
ltoes -1.18857
328
root 9.62994 17.1054 19.7627 5.29723 -5.28462 2.57637
lowerback -5.15122 1.79341 -3.80103
upperback 0.105773 2.59233 0.953211
thorax 2.78435 1.23226 3.30602
lowerneck -20.9949 -4.36305 -12.7712
upperneck 22.9547 -5.10547 11.8093
head 11.6273 -1.97339 5.75378
rclavicle -9.44227e-015 2.06736e-014
rhumerus -25.1484 17.0616 -87.632
rradius 36.5432
rwrist -19.2767
rhand -31.6949 -24.9092
rfingers 7.12502
rthumb -4.95417 -54.8312
lclavicle -9.44227e-015 2.06736e-014
lhumerus -44.9752 11.6752 76.3189
lradius 13.2823
lwrist -20.9246
lhand -9.94655 -26.3856
lfingers 7.12502
lthumb 16.0351 2.97081
rfemur -4.34546 -4.00117 15.3377
rtibia 60.1471
rfoot 9.87823 -6.45113
rtoes -16.3077
lfemur -29.0169 5.09924 -27.5834
ltibia 31.04
lfoot -6.90388 1.93155
ltoes -1.16932
329
root 9.64328 17.1398 19.9179 5.38806 -5.39763 2.33291
lowerback -4.76976 1.76393 -3.49953
upperback -0.180731 2.51737 0.961427
thorax 2.29307 1.21441 3.11773
lowerneck -21.0392 -4.23227 -12.5028
upperneck 23.3334 -4.97437 11.5919
head 11.7456 -1.91848 5.66077
rclavicle -2.6339e-015 1.47101e-014
rhumerus -25.7756 16.2375 -87.9138
rradius 35.3941
rwrist -18.2221
rhand -30.6983 -23.277
rfingers 7.12502
rthumb -3.99175 -53.2194
lclavicle -2.6339e-015 1.47101e-014
lhumerus -44.2343 10.1691 77.6902
lradius 13.8385
lwrist -18.701
lhand -9.68185 -25.9868
lfingers 7.12502
lthumb 16.29 3.34892
rfemur -6.39643 -3.84794 15.952
rtibia 62.3459
rfoot 8.44057 -8.93368
rtoes -14.9856
lfemur -28.3091 5.05656 -27.3135
ltibia 30.8144
lfoot -7.45071 2.08463
ltoes -0.107503
